<svg width="27" height="22" viewBox="0 0 27 22" fill="none" xmlns="http://www.w3.org/2000/svg">
<path d="M0.0427656 11.0414C-0.0441942 11.2518 0.00421425 11.4939 0.165372 11.6546L10.2904 21.7796C10.5138 21.9954 10.8699 21.9892 11.0858 21.7658C11.2963 21.5478 11.2963 21.2022 11.0858 20.9843L1.92037 11.8189L26.4375 11.8189C26.7481 11.8188 27 11.5669 27 11.2563C27 10.9456 26.7481 10.6938 26.4375 10.6938L1.92037 10.6938L11.0846 1.52954C11.308 1.3137 11.3143 0.957635 11.0984 0.734147C10.8826 0.510712 10.5265 0.504542 10.303 0.720332C10.2983 0.724865 10.2938 0.729454 10.2892 0.734147L0.164212 10.8591C0.112216 10.9114 0.0709257 10.9733 0.0427656 11.0414Z" fill="#2196F3"/>
</svg>
