<svg width="27" height="22" viewBox="0 0 27 22" fill="none" xmlns="http://www.w3.org/2000/svg">
<path d="M26.9572 11.4585C27.0442 11.2482 26.9958 11.0061 26.8346 10.8454L16.7096 0.720406C16.4862 0.504565 16.1301 0.510787 15.9142 0.734223C15.7037 0.952227 15.7037 1.29779 15.9142 1.51575L25.0796 10.6811H0.562518C0.251859 10.6812 0 10.9331 0 11.2437C0 11.5544 0.251859 11.8062 0.562518 11.8062H25.0796L15.9154 20.9705C15.692 21.1863 15.6857 21.5424 15.9016 21.7659C16.1174 21.9893 16.4735 21.9955 16.697 21.7797C16.7017 21.7751 16.7063 21.7705 16.7108 21.7659L26.8358 11.6409C26.8878 11.5886 26.9291 11.5267 26.9572 11.4585Z" fill="white"/>
</svg>
